<?xml version="1.0" standalone="no"?>
<!DOCTYPE svg PUBLIC "-//W3C//DTD SVG 20010904//EN"
 "http://www.w3.org/TR/2001/REC-SVG-20010904/DTD/svg10.dtd">
<svg version="1.0" xmlns="http://www.w3.org/2000/svg"
 width="398.000000pt" height="398.000000pt" viewBox="0 0 398.000000 398.000000"
 preserveAspectRatio="xMidYMid meet">
<metadata>
Created by potrace 1.11, written by Peter Selinger 2001-2013
</metadata>
<g transform="translate(0.000000,398.000000) scale(0.100000,-0.100000)"
fill="#000000" stroke="none">
<path d="M2447 3142 c-3 -4 5 -39 18 -77 13 -39 26 -95 30 -125 l6 -55 -20 36
c-26 48 -119 149 -136 149 -31 0 -24 -24 23 -78 53 -61 88 -112 78 -112 -3 0
-32 21 -65 48 -115 92 -275 162 -431 188 -100 16 -317 18 -410 4 -81 -13 -227
-57 -235 -71 -12 -18 17 -39 54 -39 35 0 34 -1 -39 -41 -138 -75 -248 -181
-329 -314 -27 -44 -32 -61 -24 -74 8 -12 5 -24 -13 -51 -32 -46 -32 -74 -1
-68 l24 5 -23 -66 c-17 -47 -24 -88 -24 -141 0 -86 8 -105 38 -96 25 8 32 -12
30 -84 -1 -25 4 -87 11 -139 l12 -94 -32 -33 c-21 -22 -31 -42 -31 -61 1 -15
1 -86 1 -157 0 -118 2 -132 25 -176 14 -27 30 -76 35 -109 16 -97 52 -141 115
-141 20 0 26 -8 36 -48 24 -98 67 -157 231 -321 200 -199 200 -197 19 -250
-58 -16 -151 -41 -206 -55 -104 -25 -164 -49 -164 -66 0 -15 173 -99 293 -141
59 -22 109 -39 111 -39 2 0 7 15 10 33 7 31 8 31 21 12 8 -11 22 -28 32 -38
16 -16 18 -17 21 -3 4 21 14 20 44 -4 14 -10 28 -17 31 -13 4 3 14 0 23 -7 12
-11 17 -11 23 -1 6 9 13 5 25 -13 9 -14 25 -26 36 -26 17 0 15 6 -17 48 -47
61 -76 124 -61 133 8 5 6 15 -6 33 -9 14 -12 26 -7 26 16 0 111 -51 111 -59 0
-14 33 -7 61 12 25 17 29 17 68 1 l41 -16 -48 -54 c-58 -65 -99 -134 -80 -134
20 1 41 22 62 62 10 21 27 45 37 54 18 17 19 15 19 -56 0 -60 3 -71 15 -66 8
3 67 6 130 7 63 0 115 4 115 8 0 14 -55 88 -98 133 l-46 47 35 15 c18 8 37 12
41 10 5 -3 8 -1 8 4 0 6 21 22 48 37 26 15 57 37 69 47 23 21 43 17 43 -8 0
-9 11 -30 25 -48 l24 -32 -25 -54 c-14 -29 -40 -75 -59 -102 -29 -39 -32 -48
-17 -48 10 0 34 24 57 58 21 32 49 63 62 69 21 10 22 9 11 -11 -10 -18 -9 -19
4 -8 13 10 17 10 20 0 4 -11 8 -10 21 0 9 8 21 11 26 8 6 -4 15 2 21 13 7 13
7 22 0 26 -21 13 -9 24 16 14 15 -5 29 -8 31 -5 3 2 -5 7 -18 11 -17 6 -19 9
-8 16 11 7 11 9 -2 9 -20 0 -33 27 -16 34 7 2 4 5 -7 5 -15 1 -16 4 -6 16 7 8
10 16 6 16 -29 6 -53 2 -63 -11 -10 -12 -11 -5 -6 35 3 28 6 51 7 51 4 5 254
-72 250 -77 -2 -4 4 -21 12 -39 11 -20 15 -46 11 -71 -3 -21 -3 -39 1 -39 14
0 242 114 242 121 0 15 -61 40 -133 55 -99 21 -349 94 -364 106 -7 6 -13 19
-13 28 0 10 67 85 151 167 174 171 204 210 235 307 20 65 25 71 53 77 59 12
101 72 101 144 0 20 14 63 31 98 31 60 32 64 26 163 -3 55 -2 118 3 139 10 44
-5 84 -42 110 -20 13 -23 26 -27 97 -3 75 -2 81 13 69 9 -7 23 -10 32 -7 14 5
16 16 11 61 -3 34 -1 57 5 61 35 22 -53 338 -114 411 -14 17 -5 16 38 -2 63
-26 73 3 22 61 -48 54 -141 120 -196 138 l-49 16 10 55 c18 95 -22 164 -56 99
l-15 -28 -12 59 c-18 88 -46 155 -81 198 -29 35 -52 46 -62 29z m-810 -68 c-3
-3 -12 -4 -19 -1 -8 3 -5 6 6 6 11 1 17 -2 13 -5z m126 -6 c-13 -6 -23 -15
-23 -20 0 -12 -38 -10 -42 3 -3 8 -12 9 -28 4 l-25 -9 25 -7 c16 -4 19 -7 8
-8 -10 -1 -18 -8 -18 -16 0 -8 -4 -15 -10 -15 -5 0 -7 7 -4 15 4 10 0 15 -14
15 -11 0 -22 -6 -25 -12 -2 -7 -7 -10 -11 -7 -4 3 2 17 12 29 16 20 29 24 80
24 33 1 64 5 68 9 4 4 12 7 18 6 6 0 1 -5 -11 -11z m63 -2 c7 -8 24 -12 36
-10 21 4 22 4 3 -5 -24 -11 -3 -14 33 -4 18 4 21 8 10 15 -9 7 -5 8 12 3 14
-4 36 -8 50 -10 14 -1 28 -3 32 -4 3 0 5 -9 3 -18 -2 -10 -4 -21 -4 -24 -1 -4
-13 -18 -27 -33 -18 -18 -37 -26 -58 -25 l-31 1 36 12 c53 17 96 64 47 52 -13
-3 -17 -3 -11 0 10 4 10 9 -1 20 -19 19 -28 18 -24 -2 2 -10 -4 -19 -12 -21
-12 -4 -12 -3 -1 5 16 11 -3 27 -19 17 -6 -4 -38 -6 -71 -6 -33 0 -72 -4 -86
-10 -18 -7 -30 -6 -37 1 -7 7 -4 10 10 10 12 0 24 3 28 7 4 4 26 7 49 7 34 -1
36 0 8 3 -31 4 -32 5 -15 18 24 18 23 18 40 1z m239 -36 c3 -5 -4 -6 -15 -3
-11 3 -22 9 -25 13 -3 5 4 6 15 3 11 -3 22 -9 25 -13z m-477 -7 c-2 -11 6 -19
22 -24 20 -6 21 -7 5 -8 -29 -1 -49 15 -42 33 8 21 19 21 15 -1z m527 -5 c14
-6 25 -15 25 -20 0 -4 11 -8 24 -8 13 0 35 -9 48 -20 14 -10 29 -16 33 -12 5
4 5 1 1 -6 -7 -11 -11 -11 -24 1 -10 8 -28 18 -41 22 -21 6 -22 5 -10 -8 8 -8
18 -12 23 -9 5 3 6 0 1 -7 -5 -9 -13 -7 -29 8 -12 12 -33 21 -47 20 l-24 -1
25 -8 c22 -7 20 -8 -11 -7 -30 2 -36 5 -33 21 2 10 6 21 10 25 4 3 4 -2 1 -11
-7 -20 0 -22 22 -9 10 7 8 12 -10 25 -27 19 -21 21 16 4z m-564 -21 c-11 -14
-5 -27 11 -27 5 0 6 5 3 10 -7 12 -3 12 20 4 14 -6 13 -8 -7 -18 -29 -15 -37
-46 -11 -46 11 0 25 6 32 13 11 10 13 9 9 -3 -8 -25 -46 -23 -81 4 -34 26 -48
32 -45 19 4 -20 -15 -40 -33 -36 -16 4 -17 8 -8 20 7 8 18 12 26 9 8 -3 11 -2
8 3 -10 16 13 22 34 9 17 -10 23 -10 33 1 11 10 10 12 -6 9 -10 -1 -21 3 -23
10 -3 6 2 12 11 12 9 0 16 5 16 10 0 6 5 10 11 10 8 0 9 -4 0 -13z m444 -46
c-3 -6 -11 -11 -17 -11 -6 0 -6 6 2 15 14 17 26 13 15 -4z m-162 2 c-7 -2 -19
-2 -25 0 -7 3 -2 5 12 5 14 0 19 -2 13 -5z m-96 -9 c-3 -3 -12 -4 -19 -1 -8 3
-5 6 6 6 11 1 17 -2 13 -5z m387 -3 c4 -5 -3 -7 -14 -4 -23 6 -26 13 -6 13 8
0 17 -4 20 -9z m33 -13 c-3 -8 -6 -5 -6 6 -1 11 2 17 5 13 3 -3 4 -12 1 -19z
m48 -27 c0 -22 -3 -37 -7 -35 -4 3 -16 0 -27 -5 -14 -8 -22 -7 -32 6 -13 15
-11 16 12 10 28 -7 46 13 33 35 -4 6 0 14 7 19 8 5 14 9 14 9 0 0 0 -18 0 -39z
m88 8 c1 3 11 0 22 -7 11 -6 15 -12 9 -12 -5 0 -19 -6 -29 -14 -19 -14 -18
-15 15 -50 38 -39 66 -50 34 -14 l-19 22 27 -20 c20 -15 23 -21 12 -27 -8 -4
-19 -5 -24 -2 -6 3 -10 0 -11 -7 0 -10 -2 -10 -6 0 -2 6 -17 12 -33 12 -16 0
-30 7 -34 15 -7 18 -2 19 24 3 27 -17 40 1 13 19 -13 9 -23 22 -23 30 0 8 -4
12 -9 9 -13 -8 -38 3 -45 20 -7 18 3 44 16 44 6 0 5 -6 -2 -15 -10 -12 -10
-18 0 -30 14 -16 35 -15 65 4 19 12 19 12 -3 8 -12 -3 -19 -1 -16 4 3 5 -2 12
-10 15 -9 3 -13 11 -9 17 4 6 11 3 20 -9 8 -10 15 -17 16 -15z m-949 7 c-4
-11 3 -13 31 -10 31 3 35 1 25 -11 -15 -18 -42 -19 -58 -3 -9 9 -12 9 -13 -2
-1 -8 -1 -19 0 -23 1 -4 -13 -14 -30 -21 -19 -8 -27 -16 -20 -20 20 -12 12
-27 -12 -22 -14 2 -24 -1 -24 -8 0 -16 42 -15 59 2 6 6 19 12 27 12 9 0 0 -11
-19 -24 -21 -14 -37 -20 -41 -14 -4 6 -12 7 -19 3 -9 -5 -9 -9 -1 -14 8 -5 4
-14 -11 -26 -13 -11 -17 -13 -10 -5 16 19 15 31 -3 24 -8 -4 -15 -1 -15 5 0 6
4 11 8 11 10 0 13 38 4 44 -4 2 -14 -3 -22 -12 -13 -14 -12 -15 3 -9 11 4 16
3 12 -4 -4 -5 -16 -7 -27 -3 -11 3 -18 2 -15 -3 3 -5 2 -15 -2 -22 -7 -10 -9
-10 -14 2 -3 9 7 26 23 42 23 22 32 26 43 17 11 -9 18 -7 33 9 19 22 19 22 -3
10 -19 -9 -22 -9 -17 3 3 9 16 13 33 11 15 -2 34 1 42 6 11 7 10 9 -6 7 -11
-2 -21 2 -22 7 -1 6 5 9 13 7 8 -2 13 1 12 7 -2 5 1 8 5 8 5 -1 13 6 18 16 12
20 21 23 13 3z m771 -6 c3 -5 4 -14 0 -20 -8 -13 -35 -1 -35 16 0 16 26 19 35
4z m-571 -35 c4 -12 0 -14 -19 -9 -21 5 -25 3 -26 -17 l0 -24 -12 23 c-8 19
-8 25 4 33 21 13 46 11 53 -6z m29 -1 c-5 -13 -2 -15 17 -9 15 5 20 4 16 -4
-12 -19 -46 -13 -46 9 0 11 4 20 10 20 5 0 7 -7 3 -16z m-182 -21 c8 2 11 2 6
0 -4 -3 -4 -10 -1 -15 4 -7 2 -8 -4 -4 -7 4 -17 4 -24 0 -6 -4 -24 -8 -40 -9
-26 -3 -27 -2 -11 11 10 7 24 14 31 14 8 0 10 5 6 13 -6 9 -4 9 8 -1 8 -7 22
-11 29 -9z m144 -11 c-3 -3 -11 0 -18 7 -9 10 -8 11 6 5 10 -3 15 -9 12 -12z
m870 -12 c3 -6 -1 -7 -9 -4 -18 7 -21 14 -7 14 6 0 13 -4 16 -10z m-972 -27
c-18 -9 -33 -21 -33 -25 0 -5 -5 -6 -11 -2 -12 7 45 43 66 43 6 0 -5 -8 -22
-16z m190 10 c-7 -2 -21 -2 -30 0 -10 3 -4 5 12 5 17 0 24 -2 18 -5z m828 -20
c13 -15 17 -22 8 -15 -9 6 -19 8 -23 4 -4 -4 -6 0 -4 8 2 8 -3 14 -10 12 -8
-1 -11 2 -7 8 8 14 8 14 36 -17z m-878 0 c-7 -2 -19 -2 -25 0 -7 3 -2 5 12 5
14 0 19 -2 13 -5z m44 -9 c-3 -3 -12 -4 -19 -1 -8 3 -5 6 6 6 11 1 17 -2 13
-5z m-256 -31 c-6 -10 -11 -14 -11 -10 0 5 -5 5 -10 2 -7 -4 -7 -12 0 -25 8
-16 6 -18 -17 -15 -38 4 -53 -4 -46 -23 4 -14 3 -15 -5 -2 -8 11 -2 22 26 47
20 18 43 32 50 33 6 0 12 5 12 12 0 6 3 9 6 5 3 -3 1 -14 -5 -24z m94 2 l-30
-25 26 0 c15 0 29 -7 33 -15 7 -18 -10 -20 -17 -2 -4 9 -8 8 -16 -3 -8 -12
-11 -12 -11 -1 0 10 -3 11 -13 3 -18 -15 -39 -1 -27 18 6 8 10 11 10 7 0 -5
15 3 33 17 41 33 52 33 12 1z m-304 -12 c13 -15 12 -16 -8 -11 -28 7 -30 2 -4
-12 15 -7 23 -6 35 6 9 9 14 20 11 25 -4 5 -1 9 5 9 7 0 9 -7 6 -16 -4 -9 -2
-22 4 -29 8 -9 8 -15 0 -20 -5 -3 -10 2 -10 11 0 18 -6 17 -11 -1 -8 -28 -24
-33 -46 -12 -28 25 -29 18 -5 -22 17 -29 19 -29 36 -13 10 9 5 -2 -10 -25 -15
-23 -31 -40 -37 -36 -5 3 -3 9 4 14 7 4 10 11 7 14 -9 10 -28 -4 -28 -20 0 -7
6 -20 13 -27 16 -16 18 -46 3 -44 -17 3 -52 25 -41 26 6 0 3 5 -5 10 -9 6 -11
10 -3 10 7 0 10 7 6 18 -5 14 -3 13 11 -3 l16 -20 -7 20 c-3 11 -11 23 -17 27
-7 5 -7 8 2 8 8 0 11 9 8 25 -3 15 0 24 6 22 6 -1 12 10 12 24 1 21 21 59 31
59 1 0 9 -8 16 -17z m359 7 c0 -5 -4 -10 -10 -10 -5 0 -10 5 -10 10 0 6 5 10
10 10 6 0 10 -4 10 -10z m832 -15 c-2 -14 -8 -25 -13 -25 -5 0 -8 -5 -6 -12 1
-6 -6 -14 -17 -16 -11 -2 -16 0 -12 6 4 6 -6 12 -21 15 -23 3 -21 4 10 6 30 1
39 6 47 26 5 14 11 25 13 25 2 0 2 -11 -1 -25z m88 5 c14 -11 21 -20 16 -20
-5 0 -1 -10 10 -22 l19 -23 -26 23 c-14 12 -30 22 -37 22 -6 0 -14 4 -17 10
-4 6 1 7 12 3 12 -4 15 -3 8 5 -5 6 -21 12 -35 15 l-25 4 25 1 c14 1 36 -7 50
-18z m60 0 c6 -11 8 -20 6 -20 -3 0 -10 9 -16 20 -6 11 -8 20 -6 20 3 0 10 -9
16 -20z m65 -1 c-3 -16 0 -19 16 -14 13 4 21 1 26 -12 8 -21 29 -36 58 -40 32
-5 99 -36 108 -50 5 -8 13 -10 19 -7 7 4 8 2 4 -5 -4 -6 -12 -9 -17 -6 -5 4
-9 0 -9 -7 0 -9 -3 -9 -10 2 -8 13 -10 13 -10 -2 0 -9 5 -20 10 -23 6 -4 10
-12 9 -18 -3 -19 20 -67 30 -65 5 2 9 -1 9 -6 0 -5 6 -12 14 -17 9 -6 6 -8 -9
-6 -12 0 -20 4 -18 7 5 9 -19 25 -42 26 -14 1 -20 -3 -16 -12 3 -8 9 -12 13
-9 5 3 11 1 14 -4 8 -12 -21 -8 -34 5 -6 6 -8 17 -5 26 6 16 35 20 35 5 0 -6
3 -7 6 -4 9 9 -16 38 -27 31 -5 -3 -9 -1 -9 4 0 6 7 13 16 16 14 5 13 10 -10
32 -14 15 -23 30 -20 35 3 5 -2 9 -10 9 -9 0 -25 9 -36 20 -11 11 -20 16 -20
10 0 -5 -7 -10 -15 -10 -9 0 -12 6 -9 15 4 8 1 15 -5 15 -6 0 -11 -4 -11 -10
0 -5 -5 -10 -11 -10 -8 0 -8 4 0 13 8 10 7 19 -5 33 -15 18 -15 18 -9 -3 5
-18 3 -22 -9 -17 -9 3 -13 10 -10 15 7 13 -10 11 -23 -2 -7 -7 -12 -5 -17 6
-4 13 -2 16 9 11 8 -3 15 -1 15 4 0 6 -5 10 -10 10 -6 0 -5 6 2 15 18 20 27
18 23 -6z m-1035 -19 c0 -5 -5 -10 -11 -10 -5 0 -7 5 -4 10 3 6 8 10 11 10 2
0 4 -4 4 -10z m320 -20 c0 -5 -8 -10 -17 -10 -15 0 -16 2 -3 10 19 12 20 12
20 0z m40 -7 c0 -16 -40 -32 -78 -33 -26 0 -41 -4 -37 -10 8 -13 -5 -13 -25 0
-11 7 -11 10 -2 10 7 0 11 4 8 8 -2 4 11 6 30 4 49 -6 85 5 78 23 -5 11 -2 13
10 9 9 -3 16 -9 16 -11z m500 -3 c22 -22 19 -25 -11 -10 -10 6 -19 15 -19 20
0 15 8 12 30 -10z m-780 0 c18 -12 2 -12 -25 0 -13 6 -15 9 -5 9 8 0 22 -4 30
-9z m330 0 c12 -8 11 -10 -7 -10 -13 0 -23 5 -23 10 0 13 11 13 30 0z m103 3
c-7 -2 -19 -2 -25 0 -7 3 -2 5 12 5 14 0 19 -2 13 -5z m128 -8 c25 -10 29 -15
14 -15 -11 -1 -14 -4 -7 -7 37 -15 -19 -43 -66 -32 -37 8 -49 16 -38 26 4 4
10 3 14 -3 4 -5 24 -11 44 -13 32 -2 37 0 35 18 -1 15 -7 19 -27 17 -14 -2
-17 -1 -5 2 l20 4 -20 9 c-11 4 -15 8 -9 8 7 1 27 -6 45 -14z m-86 -11 c-14
-11 -33 -14 -61 -10 -22 3 -45 1 -50 -3 -12 -11 -105 -21 -99 -11 6 10 66 21
143 25 35 2 66 6 69 9 4 3 9 6 12 6 3 0 -3 -8 -14 -16z m-830 -14 c-10 -11
-20 -18 -23 -15 -7 6 18 35 31 35 5 0 2 -9 -8 -20z m313 -12 l11 -31 -19 21
c-20 22 -26 42 -12 42 4 0 13 -14 20 -32z m667 12 c-3 -4 1 -11 7 -14 10 -3
-22 -1 -40 3 -1 1 3 7 10 15 13 14 32 11 23 -4z m335 14 c0 -8 -27 -34 -36
-34 -3 0 -1 6 5 13 6 8 8 17 4 20 -3 4 1 7 10 7 10 0 17 -3 17 -6z m-885 -24
c-7 -11 22 -33 34 -26 5 4 12 2 15 -2 3 -5 -7 -9 -22 -8 -19 0 -26 -4 -24 -14
2 -8 1 -12 -3 -8 -4 4 -14 1 -22 -7 -8 -8 -23 -15 -33 -15 -10 0 -26 -10 -34
-22 l-16 -22 0 22 c0 17 7 24 30 28 16 4 27 10 25 15 -3 4 -12 6 -20 2 -8 -3
-15 0 -15 7 0 6 4 9 9 5 5 -3 12 -1 16 5 4 6 10 8 15 5 5 -3 11 -1 15 5 3 5
-1 10 -9 10 -9 0 -16 5 -16 10 0 7 7 7 21 0 20 -11 20 -12 3 -31 -9 -10 -13
-19 -7 -19 15 0 44 36 36 44 -11 10 -12 37 -2 30 5 -3 7 -9 4 -14z m701 5 c16
-12 16 -14 3 -15 -9 0 -22 7 -29 15 -16 19 0 19 26 0z m44 0 c-13 -16 -11 -17
35 -18 11 0 26 -6 33 -13 9 -10 5 -12 -23 -7 -23 4 -35 2 -35 -6 0 -6 -7 -11
-17 -11 -9 0 -13 -3 -10 -7 4 -3 0 -15 -10 -25 -18 -20 -38 -25 -27 -6 5 8 2
9 -9 5 -10 -3 -17 -2 -17 3 0 6 2 10 4 10 2 0 12 3 22 7 12 4 15 3 10 -5 -4
-7 -3 -12 3 -12 25 0 18 20 -13 39 -39 25 -60 27 -31 4 l20 -16 -20 8 c-33 12
-48 11 -53 -4 -3 -10 0 -12 12 -8 9 4 16 1 16 -4 0 -7 -9 -9 -22 -5 -13 3 -30
6 -38 6 -8 1 -3 7 13 16 15 8 27 20 27 27 0 7 11 13 25 13 14 1 25 -2 25 -7 0
-5 9 -9 21 -9 11 0 17 -4 14 -10 -9 -15 4 -12 21 5 9 8 12 15 8 15 -3 0 -1 7
6 15 7 8 15 15 17 15 3 0 0 -7 -7 -15z m-399 -13 c-7 -2 -18 1 -23 6 -8 8 -4
9 13 5 13 -4 18 -8 10 -11z m-741 -2 c0 -5 -2 -10 -4 -10 -3 0 -8 5 -11 10 -3
6 -1 10 4 10 6 0 11 -4 11 -10z m530 0 c-8 -5 -19 -10 -25 -10 -5 0 -3 5 5 10
8 5 20 10 25 10 6 0 3 -5 -5 -10z m-585 -18 c-3 -3 -11 0 -18 7 -9 10 -8 11 6
5 10 -3 15 -9 12 -12z m1040 -3 c-10 -15 -25 -10 -19 6 4 8 10 12 15 9 5 -3 7
-10 4 -15z m-723 -21 c-15 -15 -24 -6 -16 16 5 12 10 14 17 7 8 -8 8 -14 -1
-23z m1008 28 c0 -3 -4 -8 -10 -11 -5 -3 -10 -1 -10 4 0 6 5 11 10 11 6 0 10
-2 10 -4z m-90 -26 c0 -5 -5 -10 -11 -10 -5 0 -7 5 -4 10 3 6 8 10 11 10 2 0
4 -4 4 -10z m-1262 -18 c2 -8 -2 -10 -13 -5 -15 5 -16 3 -5 -17 l12 -22 -25
18 c-18 13 -21 20 -11 22 8 2 14 8 14 14 0 13 23 5 28 -10z m367 -2 c-10 -11
-20 -18 -23 -16 -5 6 21 35 32 36 5 0 1 -9 -9 -20z m929 8 c-5 -7 -3 -8 7 -2
22 14 38 13 33 -1 -6 -15 -52 -26 -60 -14 -7 11 4 29 17 29 6 0 7 -5 3 -12z
m168 -12 c-3 -16 13 -23 20 -8 2 5 14 5 28 1 l25 -7 -27 -1 c-14 -1 -28 -5
-30 -11 -1 -5 -14 -1 -27 9 -14 11 -21 23 -17 30 11 17 32 7 28 -13z m-559 -2
c40 -9 122 -31 182 -51 107 -34 154 -38 208 -18 21 9 66 -61 106 -165 16 -41
48 -113 70 -160 23 -46 41 -95 41 -110 0 -14 5 -41 11 -60 6 -19 17 -123 26
-230 8 -107 17 -224 20 -260 7 -85 -19 -295 -45 -360 -3 -8 -7 -25 -8 -37 -2
-12 -12 -44 -24 -70 -20 -42 -23 -46 -31 -28 -8 17 -9 16 -4 -6 3 -19 -3 -33
-28 -57 -17 -17 -35 -31 -39 -32 -5 0 -8 -3 -8 -7 0 -5 -31 -38 -67 -75 -48
-49 -70 -64 -76 -55 -6 8 -7 7 -4 -4 6 -18 -37 -67 -45 -52 -3 4 -3 3 -2 -4 2
-6 -14 -27 -36 -47 -21 -19 -36 -36 -34 -39 3 -2 -13 -20 -35 -40 -42 -38 -88
-67 -77 -48 4 6 2 11 -3 11 -6 0 -11 -6 -11 -14 0 -8 -15 -16 -37 -20 -21 -4
-46 -10 -57 -13 -12 -3 -16 -1 -12 6 4 6 2 11 -3 11 -6 0 -11 -4 -11 -10 0 -5
-20 -10 -45 -10 -25 0 -45 5 -45 10 0 6 -5 10 -11 10 -5 0 -7 -4 -4 -10 3 -5
-1 -10 -9 -10 -9 0 -16 5 -16 10 0 6 -5 10 -11 10 -5 0 -7 -5 -3 -12 5 -8 -11
-10 -62 -5 -93 8 -148 28 -152 55 -2 12 -8 22 -14 22 -5 0 -7 -8 -4 -17 3 -10
-34 24 -84 74 -49 51 -88 99 -86 105 1 7 1 9 -2 5 -2 -5 -17 4 -33 19 -22 21
-26 30 -17 37 9 6 7 7 -6 3 -15 -5 -32 5 -67 40 -26 26 -46 52 -45 58 2 6 1 7
-2 3 -7 -13 -42 24 -42 45 0 11 -4 17 -9 13 -5 -3 -19 8 -30 24 -24 34 -55
115 -41 106 6 -3 10 1 10 10 0 9 -5 13 -10 10 -15 -9 -25 24 -11 38 16 16 14
32 -3 18 -11 -9 -15 -6 -19 16 -3 16 -1 30 4 31 5 2 9 8 9 13 0 6 -4 8 -9 5
-5 -4 -13 8 -16 26 -5 21 -4 33 4 36 6 2 11 8 11 13 0 6 -4 8 -9 4 -14 -8 -19
18 -27 132 -5 78 -3 107 6 118 10 12 13 62 14 181 1 147 3 167 19 175 14 8 17
24 17 82 0 87 16 155 33 138 16 -16 37 -13 44 7 25 72 61 154 83 190 24 39 28
41 33 23 8 -30 38 -26 73 10 76 80 202 158 297 184 71 19 232 19 320 -1z m467
12 c0 -2 -7 -7 -16 -10 -8 -3 -12 -2 -9 4 6 10 25 14 25 6z m35 -30 c8 3 22 1
32 -5 16 -9 15 -10 -7 -8 -21 2 -25 -2 -22 -23 l2 -25 -15 28 c-10 16 -24 27
-38 27 -21 0 -21 1 3 13 20 10 26 10 28 1 2 -7 9 -11 17 -8z m-175 0 c0 -3 -4
-8 -10 -11 -5 -3 -10 -1 -10 4 0 6 5 11 10 11 6 0 10 -2 10 -4z m-875 -17 c4
-6 1 -10 -6 -8 -26 3 -40 -1 -34 -11 3 -5 13 -6 23 -3 9 3 5 -4 -10 -15 -14
-12 -30 -22 -34 -22 -4 0 0 6 10 13 16 12 16 14 2 26 -9 7 -13 17 -10 22 7 13
51 11 59 -2z m-463 -26 c-7 -3 -18 -16 -23 -30 -5 -14 -12 -23 -15 -21 -3 3 3
22 12 42 13 26 21 33 28 25 8 -8 7 -13 -2 -16z m302 15 c-3 -4 0 -8 5 -8 6 0
11 4 11 8 0 4 11 8 25 8 18 0 22 -3 14 -12 -6 -7 -17 -10 -25 -7 -10 4 -14 0
-12 -10 2 -9 -1 -15 -7 -14 -5 1 -9 5 -8 8 1 4 -8 5 -20 3 -12 -2 -16 -2 -9 2
19 9 14 24 -5 18 -13 -4 -14 -3 -5 3 16 12 43 13 36 1z m1239 -34 c-3 -9 1
-14 12 -14 10 0 15 -5 12 -14 -3 -7 -1 -18 5 -24 6 -6 6 -12 -1 -16 -6 -4 -13
4 -17 19 -3 13 -11 22 -16 19 -6 -4 -6 -10 1 -17 14 -14 14 -27 -1 -27 -6 0
-8 3 -5 6 4 4 -3 21 -15 38 -12 17 -15 25 -8 19 8 -7 17 -13 21 -13 8 0 4 43
-6 62 -3 7 0 5 9 -5 8 -11 12 -25 9 -33z m61 21 c-4 -8 -8 -15 -10 -15 -2 0
-4 7 -4 15 0 8 4 15 10 15 5 0 7 -7 4 -15z m-1579 -25 c-2 -33 -15 -54 -15
-26 0 9 -4 15 -10 11 -6 -3 -5 -15 2 -31 9 -19 9 -27 -1 -37 -10 -9 -11 -8 -5
6 3 9 1 24 -6 32 -6 8 -8 20 -4 27 6 11 36 45 40 47 1 1 1 -13 -1 -29z m229
21 c3 -5 0 -14 -8 -20 -7 -6 -13 -23 -13 -36 0 -19 3 -23 12 -15 17 14 27 -11
11 -30 -17 -22 -39 -24 -32 -3 6 21 -9 51 -21 40 -4 -5 -1 -12 6 -16 10 -7 11
-13 2 -30 -11 -19 -8 -25 11 -22 3 0 5 -7 3 -17 -2 -9 -4 -19 -4 -22 -1 -3 -6
2 -12 10 -9 12 -10 11 -6 -8 3 -14 1 -20 -6 -15 -6 4 -8 0 -4 -10 3 -9 1 -19
-5 -23 -7 -4 -8 -3 -4 4 4 7 2 12 -4 12 -7 0 -5 10 4 28 8 16 13 46 11 72 -2
25 0 47 5 50 5 3 10 12 12 20 7 31 31 49 42 31z m46 -36 c0 -8 -2 -15 -4 -15
-2 0 -6 7 -10 15 -3 8 -1 15 4 15 6 0 10 -7 10 -15z m1334 -22 c4 -5 13 -8 19
-8 17 0 19 -22 2 -28 -8 -4 -15 -1 -16 6 0 7 -5 3 -10 -8 -8 -17 -8 -16 -4 7
4 20 0 28 -12 31 -15 4 -15 5 -2 6 9 0 19 -2 23 -6z m104 -14 c-2 -3 4 -14 12
-24 13 -16 12 -17 -4 -14 -12 3 -20 13 -21 27 -1 12 2 21 7 20 5 -2 8 -6 6 -9z
m-128 -18 c0 -6 -4 -13 -10 -16 -5 -3 -10 1 -10 9 0 9 5 16 10 16 6 0 10 -4
10 -9z m-1665 -27 c0 -15 7 -19 32 -18 33 2 53 -20 27 -30 -8 -3 -14 -1 -14 5
0 6 -5 7 -10 4 -6 -4 -16 -2 -23 4 -9 7 -16 5 -25 -9 -7 -12 -8 -21 -2 -25 6
-3 10 -2 10 3 0 5 7 9 15 9 20 0 19 -4 -6 -17 -17 -9 -23 -8 -35 7 -18 25 -17
31 6 38 11 4 18 11 14 16 -3 5 -9 7 -14 4 -4 -3 -6 4 -3 15 7 25 28 21 28 -6z
m1625 12 c0 -11 -19 -15 -25 -6 -3 5 1 10 9 10 9 0 16 -2 16 -4z m120 -15 c0
-4 -11 -13 -25 -19 -14 -6 -25 -8 -25 -3 0 5 9 11 21 14 13 4 18 10 13 18 -4
8 -3 10 4 5 7 -4 12 -11 12 -15z m-99 -18 c12 -16 12 -17 -2 -6 -9 7 -20 9
-24 5 -5 -4 -5 -1 -1 6 9 16 11 15 27 -5z m159 7 c0 -13 -12 -19 -26 -13 -8 3
-12 8 -9 12 5 10 35 10 35 1z m31 -60 c-4 -10 -8 -5 -12 15 -4 17 -7 24 -8 16
0 -8 -4 -12 -7 -8 -3 3 -3 16 1 28 7 22 8 22 20 -7 6 -16 9 -36 6 -44z m-201
30 c0 -5 -2 -10 -4 -10 -3 0 -8 5 -11 10 -3 6 -1 10 4 10 6 0 11 -4 11 -10z
m116 -52 c-3 -13 -5 -25 -5 -27 -1 -2 -7 2 -15 8 -15 13 -29 64 -15 55 5 -3 9
-15 9 -27 0 -15 3 -18 11 -10 8 8 8 17 0 31 -16 30 -13 40 4 15 8 -12 13 -32
11 -45z m24 34 c0 -15 -2 -15 -10 -2 -13 20 -13 33 0 25 6 -3 10 -14 10 -23z
m-1572 -13 c-3 -8 -7 -3 -11 10 -4 17 -3 21 5 13 5 -5 8 -16 6 -23z m1462 11
c0 -5 -4 -10 -10 -10 -5 0 -10 -5 -10 -11 0 -6 6 -9 13 -6 7 3 13 -3 14 -14 2
-23 -13 -34 -23 -18 -4 8 -3 9 4 5 18 -11 14 5 -4 18 -9 7 -12 18 -8 29 7 18
24 23 24 7z m-1555 -20 c10 -11 21 -17 25 -15 8 5 20 -19 19 -38 0 -7 -4 -4
-8 6 -6 17 -8 17 -20 3 -11 -13 -8 -16 21 -25 18 -5 27 -10 20 -10 -8 -1 -10
-6 -6 -13 4 -7 -7 -1 -25 11 -22 16 -31 30 -28 41 3 10 -4 25 -16 35 -19 17
-21 17 -34 -1 -7 -10 -13 -14 -13 -10 0 4 -5 4 -10 1 -7 -4 -6 -14 1 -28 9
-20 8 -20 -9 2 -12 14 -26 22 -35 18 -15 -6 -37 10 -37 27 0 5 6 2 13 -9 10
-13 16 -15 21 -6 6 9 11 9 21 1 11 -9 17 -7 27 9 16 26 50 27 73 1z m1695 0
c0 -5 -8 -10 -17 -10 -15 0 -16 2 -3 10 19 12 20 12 20 0z m-1605 -21 c4 -5
-3 -8 -14 -6 -28 4 -34 12 -11 14 11 1 22 -2 25 -8z m21 -15 c-4 -9 -9 -15
-11 -12 -3 3 -3 13 1 22 4 9 9 15 11 12 3 -3 3 -13 -1 -22z m-246 -5 c0 -5 5
-9 11 -9 5 0 7 5 4 10 -3 6 -1 10 4 10 6 0 11 -4 11 -10 0 -5 9 -18 20 -28 15
-14 19 -28 16 -60 -4 -46 -10 -59 -21 -43 -3 6 -2 11 4 11 6 0 8 7 5 15 -4 8
-11 12 -17 8 -5 -3 -7 -1 -3 5 3 6 2 13 -4 17 -5 3 -10 11 -10 16 0 6 5 7 10
4 6 -3 10 1 10 9 0 9 -3 15 -7 14 -12 -2 -47 14 -55 26 -12 18 -9 26 7 20 8
-4 15 -10 15 -15z m215 -9 c-3 -5 -11 -10 -16 -10 -6 0 -7 5 -4 10 3 6 11 10
16 10 6 0 7 -4 4 -10z m1515 -21 c0 -5 6 -9 14 -9 7 0 16 -8 19 -19 3 -14 12
-18 35 -15 23 3 31 -1 35 -17 5 -17 3 -18 -10 -8 -12 10 -16 10 -23 0 -5 -9
-10 -10 -14 -2 -4 6 -2 11 5 11 7 0 9 3 6 6 -4 4 -13 1 -21 -5 -10 -9 -16 -9
-21 -1 -5 8 -10 8 -20 0 -11 -9 -13 -5 -9 19 3 17 0 32 -7 37 -9 5 -10 2 -6
-9 3 -10 3 -17 -2 -17 -10 0 -21 36 -14 44 7 7 33 -5 33 -15z m100 -14 c0 -7
-12 -12 -30 -11 -28 1 -36 6 -26 17 11 10 56 6 56 -6z m64 -29 c-2 -6 -13 -17
-24 -24 -17 -10 -20 -10 -20 3 0 8 6 14 13 13 7 -2 12 8 11 25 0 26 1 27 12
12 7 -9 11 -22 8 -29z m-1750 26 c3 -5 -1 -9 -9 -9 -8 0 -15 4 -15 9 0 4 4 8
9 8 6 0 12 -4 15 -8z m16 -32 c0 -6 -6 -13 -14 -16 -8 -3 -12 -12 -9 -20 3 -8
9 -12 13 -9 5 3 11 1 14 -4 4 -5 2 -12 -3 -16 -14 -8 -43 39 -35 59 7 17 34
22 34 6z m11 -17 c-12 -20 -14 -14 -5 12 4 9 9 14 11 11 3 -2 0 -13 -6 -23z
m1597 -19 c6 3 14 1 18 -5 4 -8 3 -9 -4 -5 -8 5 -12 -1 -12 -16 -1 -22 -1 -22
-15 -4 -8 11 -15 27 -15 35 0 13 2 13 9 2 5 -7 13 -11 19 -7z m85 -28 c-1 -12
4 -16 15 -12 10 3 5 -3 -10 -15 -19 -14 -27 -28 -24 -42 1 -12 1 -16 -1 -9 -3
7 -8 10 -13 7 -5 -3 -11 4 -15 15 -3 11 -11 20 -17 20 -6 0 -8 3 -5 6 4 4 13
1 21 -5 12 -10 18 -10 29 1 13 11 11 16 -12 32 -14 10 -18 16 -8 12 9 -3 17
-1 17 5 0 6 6 9 13 6 6 -2 11 -12 10 -21z m-1695 -48 c1 -32 -6 -34 -11 -2 -1
10 -6 25 -10 31 -5 9 -3 11 6 7 8 -3 14 -19 15 -36z m-97 -47 c-5 -3 -7 -18
-4 -33 3 -15 9 -26 13 -23 5 3 6 13 3 23 -2 11 4 25 14 33 16 13 17 12 5 -2
-7 -9 -10 -23 -6 -32 3 -8 1 -18 -5 -22 -6 -3 -11 -14 -11 -23 1 -16 2 -16 14
1 7 9 18 17 25 17 6 0 11 5 11 11 0 5 -4 8 -9 5 -5 -3 -11 1 -15 9 -3 8 0 17
7 21 7 4 9 4 5 -1 -4 -4 -1 -13 8 -19 18 -13 9 -46 -12 -46 -8 0 -14 -2 -14
-4 0 -2 -3 -13 -6 -23 -6 -15 -4 -16 7 -5 17 16 26 15 26 -3 0 -8 -9 -23 -20
-32 -15 -15 -19 -15 -17 -3 4 26 -12 63 -20 49 -5 -7 -8 -3 -7 12 0 13 -3 46
-6 73 -6 43 -5 47 9 36 8 -8 11 -16 5 -19z m1737 -37 c6 4 8 -2 5 -14 -3 -11
2 -31 11 -45 9 -13 16 -30 15 -37 0 -7 -4 -4 -8 7 -7 17 -8 17 -13 -8 -3 -15
-1 -30 3 -33 5 -3 9 -10 9 -15 0 -5 -10 0 -22 11 -18 17 -20 23 -9 29 16 10 9
83 -9 89 -5 2 -10 11 -10 20 0 14 2 14 9 3 5 -7 13 -11 19 -7z m37 -3 c3 -5 2
-12 -3 -15 -5 -3 -9 1 -9 9 0 17 3 19 12 6z m-1756 -136 c2 14 21 -17 21 -32
0 -7 -5 -13 -11 -13 -6 0 -9 7 -5 15 3 8 1 15 -4 15 -5 0 -10 -8 -13 -17 -2
-10 -4 0 -4 22 0 30 2 35 8 20 4 -11 8 -15 8 -10z m41 15 c0 -5 -5 -10 -11
-10 -5 0 -7 5 -4 10 3 6 8 10 11 10 2 0 4 -4 4 -10z m1719 -35 c-2 -25 -6 -45
-11 -45 -4 0 -8 5 -8 12 0 6 -3 9 -6 6 -3 -4 -1 -16 6 -27 8 -15 8 -21 0 -21
-7 0 -9 -9 -5 -22 6 -22 5 -22 -7 -3 -7 11 -13 32 -13 48 0 25 7 31 28 28 4 0
7 15 7 34 0 19 2 35 5 35 3 0 5 -20 4 -45z m-1719 -35 c0 -5 -4 -10 -10 -10
-5 0 -7 -6 -4 -14 3 -8 1 -17 -5 -21 -7 -4 -8 0 -4 11 4 11 2 15 -4 11 -6 -4
-14 0 -17 9 -3 8 -2 12 3 9 5 -3 12 -1 16 5 8 13 25 13 25 0z m-98 -39 c-1 -7
4 -19 12 -27 8 -8 18 -36 21 -62 10 -78 15 -92 30 -92 12 0 15 -15 14 -72 -1
-40 5 -113 14 -163 22 -118 21 -125 -3 -125 -26 0 -59 68 -60 120 0 19 -12 57
-26 84 -25 47 -26 57 -26 190 1 179 0 168 15 163 6 -2 11 -10 9 -16z m1891
-35 c-3 -12 -5 -73 -4 -136 2 -107 0 -119 -23 -160 -13 -25 -28 -71 -31 -103
-8 -59 -35 -107 -61 -107 -11 0 -14 8 -9 33 20 114 28 191 27 253 -2 63 1 72
17 77 14 3 21 18 26 58 4 30 13 67 21 83 8 16 14 36 14 45 1 13 3 13 15 -3 9
-12 12 -28 8 -40z m-1359 -1223 c4 -21 9 -45 12 -55 4 -13 -5 -17 -45 -23 -40
-5 -50 -11 -55 -29 -6 -24 -56 -50 -117 -60 -28 -5 -39 -2 -54 14 -18 20 -18
21 3 43 11 12 22 35 24 51 3 29 8 31 108 62 58 18 108 33 111 33 4 1 10 -16
13 -36z m366 -30 c74 -3 160 0 190 5 30 6 56 9 58 7 6 -6 -197 -105 -215 -105
-22 0 -145 59 -188 90 -28 21 -28 22 -5 15 14 -4 86 -9 160 -12z m433 -78 c-3
-8 -12 -15 -19 -15 -12 0 -12 4 -4 20 12 23 32 18 23 -5z m-393 -123 c0 -13
-12 -22 -22 -16 -10 6 -1 24 13 24 5 0 9 -4 9 -8z"/>
<path d="M1970 3041 c0 -5 7 -11 14 -14 10 -4 13 -1 9 9 -6 15 -23 19 -23 5z"/>
<path d="M1256 2822 c-3 -5 1 -9 9 -9 8 0 12 4 9 9 -3 4 -7 8 -9 8 -2 0 -6 -4
-9 -8z"/>
<path d="M1310 2720 c0 -5 5 -10 10 -10 6 0 10 5 10 10 0 6 -4 10 -10 10 -5 0
-10 -4 -10 -10z"/>
<path d="M1114 2721 c7 -11 46 -35 46 -28 0 3 -12 12 -26 22 -15 9 -23 12 -20
6z"/>
<path d="M1099 2663 c-8 -9 -9 -14 -2 -10 6 4 13 1 16 -5 3 -7 4 -3 4 10 -1
26 -1 26 -18 5z"/>
<path d="M1087 2565 c3 -8 9 -12 14 -9 12 7 11 11 -5 17 -10 4 -13 1 -9 -8z"/>
<path d="M2675 2650 c3 -5 11 -10 16 -10 6 0 7 5 4 10 -3 6 -11 10 -16 10 -6
0 -7 -4 -4 -10z"/>
<path d="M2714 2623 c2 -10 7 -17 12 -15 13 3 11 25 -3 29 -6 2 -10 -4 -9 -14z"/>
<path d="M2640 2579 c0 -5 5 -7 10 -4 6 3 10 8 10 11 0 2 -4 4 -10 4 -5 0 -10
-5 -10 -11z"/>
<path d="M1512 1980 c-88 -21 -234 -170 -166 -170 9 0 43 18 76 40 86 57 124
61 326 29 72 -11 84 -11 92 1 14 22 12 66 -4 79 -28 23 -254 38 -324 21z"/>
<path d="M2196 1980 c-96 -9 -118 -21 -118 -65 0 -46 13 -50 105 -36 200 32
239 28 325 -29 65 -44 92 -50 92 -21 0 21 -91 111 -138 135 -39 20 -150 27
-266 16z"/>
<path d="M1495 1746 c-48 -11 -65 -20 -92 -51 -18 -21 -33 -46 -33 -55 0 -24
40 -57 85 -69 51 -14 198 -14 250 0 22 6 56 14 75 18 32 6 35 10 33 39 -1 42
-39 98 -80 117 -38 18 -153 19 -238 1z m226 -37 c11 -5 29 -24 39 -42 l19 -31
-37 -13 c-55 -19 -58 -17 -54 27 2 23 -1 47 -8 55 -10 12 -9 15 4 15 10 0 26
-5 37 -11z m-216 -54 l0 -55 -30 6 c-37 8 -65 22 -65 33 0 18 41 60 63 64 12
2 24 5 27 6 3 0 5 -24 5 -54z m130 35 c0 -22 -29 -18 -33 3 -3 14 1 18 15 15
10 -2 18 -10 18 -18z"/>
<path d="M1874 1746 c-3 -8 -3 -20 0 -25 4 -6 2 -39 -3 -73 -5 -35 -12 -102
-15 -150 -4 -70 -2 -88 9 -88 23 0 34 59 37 204 2 105 0 140 -9 143 -7 3 -16
-2 -19 -11z"/>
<path d="M2020 1734 c-7 -18 -7 -44 0 -82 5 -31 10 -86 10 -123 0 -65 14 -119
31 -119 15 0 16 16 7 130 -5 63 -11 137 -12 164 -3 56 -21 71 -36 30z"/>
<path d="M2190 1743 c-24 -12 -43 -35 -62 -73 -30 -61 -26 -75 25 -83 18 -3
50 -10 72 -16 52 -14 199 -14 250 0 45 12 85 44 85 68 0 29 -59 90 -98 101
-20 6 -82 13 -137 16 -84 5 -105 3 -135 -13z m52 -75 c-2 -29 -6 -55 -8 -57
-2 -2 -22 2 -43 9 -40 13 -40 13 -26 41 15 29 51 59 71 59 7 0 9 -17 6 -52z
m133 22 c0 -8 -8 -16 -17 -18 -13 -2 -18 3 -18 18 0 15 5 20 18 18 9 -2 17
-10 17 -18z m122 -19 c13 -14 23 -28 23 -31 0 -9 -35 -27 -66 -34 l-30 -7 0
55 c0 54 1 55 26 50 14 -4 35 -18 47 -33z"/>
<path d="M1760 1321 c-26 -49 -2 -122 35 -107 14 5 15 8 2 27 -11 15 -13 29
-6 52 12 42 11 47 -6 47 -8 0 -19 -9 -25 -19z"/>
<path d="M2118 1334 c-3 -3 -1 -18 5 -34 8 -21 8 -35 -1 -55 -7 -15 -10 -31
-7 -36 11 -17 43 10 50 42 11 49 -22 108 -47 83z"/>
<path d="M2721 1284 c0 -11 3 -14 6 -6 3 7 2 16 -1 19 -3 4 -6 -2 -5 -13z"/>
<path d="M1831 1237 c-13 -17 -5 -27 24 -27 23 0 60 -32 49 -43 -6 -6 3 -6 65
-7 14 0 36 8 49 18 36 25 45 30 66 36 15 5 16 9 6 21 -18 22 -43 18 -70 -10
-15 -16 -34 -25 -55 -25 -21 0 -40 9 -55 25 -26 27 -61 33 -79 12z"/>
<path d="M1855 1180 c-3 -5 -1 -10 4 -10 6 0 11 5 11 10 0 6 -2 10 -4 10 -3 0
-8 -4 -11 -10z"/>
<path d="M1800 1169 c0 -5 5 -7 10 -4 6 3 10 8 10 11 0 2 -4 4 -10 4 -5 0 -10
-5 -10 -11z"/>
<path d="M2040 1171 c0 -5 5 -13 10 -16 6 -3 10 -2 10 4 0 5 -4 13 -10 16 -5
3 -10 2 -10 -4z"/>
<path d="M2105 1170 c3 -5 8 -10 11 -10 2 0 4 5 4 10 0 6 -5 10 -11 10 -5 0
-7 -4 -4 -10z"/>
<path d="M1240 1160 c0 -5 5 -10 10 -10 6 0 10 5 10 10 0 6 -4 10 -10 10 -5 0
-10 -4 -10 -10z"/>
<path d="M2195 1150 c3 -5 8 -10 11 -10 2 0 4 5 4 10 0 6 -5 10 -11 10 -5 0
-7 -4 -4 -10z"/>
<path d="M1870 1119 c0 -5 5 -7 10 -4 6 3 10 8 10 11 0 2 -4 4 -10 4 -5 0 -10
-5 -10 -11z"/>
<path d="M1775 1110 c-3 -5 -1 -10 4 -10 6 0 11 5 11 10 0 6 -2 10 -4 10 -3 0
-8 -4 -11 -10z"/>
<path d="M2295 1100 c3 -5 8 -10 11 -10 2 0 4 5 4 10 0 6 -5 10 -11 10 -5 0
-7 -4 -4 -10z"/>
<path d="M2615 1100 c3 -5 8 -10 11 -10 2 0 4 5 4 10 0 6 -5 10 -11 10 -5 0
-7 -4 -4 -10z"/>
<path d="M1671 1079 c0 -9 -12 -28 -25 -42 -25 -27 -19 -47 16 -47 10 0 20
-10 24 -25 9 -34 85 -101 130 -115 22 -6 73 -14 115 -17 152 -11 283 41 319
127 14 33 22 37 42 17 11 -11 13 -6 13 29 0 23 -2 41 -4 39 -2 -3 -13 2 -25
10 -26 19 -36 19 -36 1 0 -16 -175 -24 -402 -17 -111 3 -129 5 -124 18 5 11 1
14 -13 10 -13 -3 -21 1 -24 12 -4 14 -5 14 -6 0z m494 -79 c55 0 67 -3 57 -12
-16 -16 -466 -18 -497 -3 -29 13 66 21 235 18 74 -2 166 -3 205 -3z"/>
<path d="M2335 1040 c3 -5 8 -10 11 -10 2 0 4 5 4 10 0 6 -5 10 -11 10 -5 0
-7 -4 -4 -10z"/>
<path d="M2341 984 c0 -11 3 -14 6 -6 3 7 2 16 -1 19 -3 4 -6 -2 -5 -13z"/>
<path d="M1595 970 c3 -5 8 -10 11 -10 2 0 4 5 4 10 0 6 -5 10 -11 10 -5 0 -7
-4 -4 -10z"/>
<path d="M1461 894 c0 -11 3 -14 6 -6 3 7 2 16 -1 19 -3 4 -6 -2 -5 -13z"/>
<path d="M2530 895 c0 -8 2 -15 4 -15 2 0 6 7 10 15 3 8 1 15 -4 15 -6 0 -10
-7 -10 -15z"/>
<path d="M1431 854 c0 -11 3 -14 6 -6 3 7 2 16 -1 19 -3 4 -6 -2 -5 -13z"/>
<path d="M2391 854 c0 -11 3 -14 6 -6 3 7 2 16 -1 19 -3 4 -6 -2 -5 -13z"/>
<path d="M2340 829 c0 -5 5 -7 10 -4 6 3 10 8 10 11 0 2 -4 4 -10 4 -5 0 -10
-5 -10 -11z"/>
<path d="M1710 819 c0 -5 5 -7 10 -4 6 3 10 8 10 11 0 2 -4 4 -10 4 -5 0 -10
-5 -10 -11z"/>
<path d="M1830 791 c0 -5 9 -12 19 -16 11 -3 18 -13 16 -23 -1 -9 0 -12 2 -6
3 8 36 11 96 10 90 -1 137 11 137 35 0 8 -9 8 -27 3 -36 -11 -168 -11 -210 -1
-21 6 -33 5 -33 -2z"/>
<path d="M2240 779 c0 -5 5 -7 10 -4 6 3 10 8 10 11 0 2 -4 4 -10 4 -5 0 -10
-5 -10 -11z"/>
<path d="M2290 769 c0 -5 5 -7 10 -4 6 3 10 8 10 11 0 2 -4 4 -10 4 -5 0 -10
-5 -10 -11z"/>
<path d="M2165 759 c-4 -6 -5 -12 -2 -15 2 -3 7 2 10 11 7 17 1 20 -8 4z"/>
<path d="M1580 749 c0 -5 5 -7 10 -4 6 3 10 8 10 11 0 2 -4 4 -10 4 -5 0 -10
-5 -10 -11z"/>
<path d="M1671 734 c0 -11 3 -14 6 -6 3 7 2 16 -1 19 -3 4 -6 -2 -5 -13z"/>
<path d="M1965 730 c-3 -5 -1 -10 4 -10 6 0 11 5 11 10 0 6 -2 10 -4 10 -3 0
-8 -4 -11 -10z"/>
<path d="M2110 709 c0 -5 5 -7 10 -4 6 3 10 8 10 11 0 2 -4 4 -10 4 -5 0 -10
-5 -10 -11z"/>
<path d="M1740 670 c0 -5 5 -10 11 -10 5 0 7 5 4 10 -3 6 -8 10 -11 10 -2 0
-4 -4 -4 -10z"/>
<path d="M2170 660 c0 -5 5 -10 10 -10 6 0 10 5 10 10 0 6 -4 10 -10 10 -5 0
-10 -4 -10 -10z"/>
<path d="M1655 640 c3 -5 8 -10 11 -10 2 0 4 5 4 10 0 6 -5 10 -11 10 -5 0 -7
-4 -4 -10z"/>
<path d="M1780 640 c0 -5 5 -10 10 -10 6 0 10 5 10 10 0 6 -4 10 -10 10 -5 0
-10 -4 -10 -10z"/>
<path d="M1880 620 c0 -5 5 -10 11 -10 5 0 7 5 4 10 -3 6 -8 10 -11 10 -2 0
-4 -4 -4 -10z"/>
<path d="M2130 619 c0 -5 5 -7 10 -4 6 3 10 8 10 11 0 2 -4 4 -10 4 -5 0 -10
-5 -10 -11z"/>
<path d="M2265 620 c-3 -5 -1 -10 4 -10 6 0 11 5 11 10 0 6 -2 10 -4 10 -3 0
-8 -4 -11 -10z"/>
<path d="M1830 610 c0 -5 5 -10 11 -10 5 0 7 5 4 10 -3 6 -8 10 -11 10 -2 0
-4 -4 -4 -10z"/>
<path d="M2035 610 c3 -5 8 -10 11 -10 2 0 4 5 4 10 0 6 -5 10 -11 10 -5 0 -7
-4 -4 -10z"/>
<path d="M1740 591 c0 -5 5 -13 10 -16 6 -3 10 -2 10 4 0 5 -4 13 -10 16 -5 3
-10 2 -10 -4z"/>
<path d="M1901 564 c0 -11 3 -14 6 -6 3 7 2 16 -1 19 -3 4 -6 -2 -5 -13z"/>
<path d="M2135 570 c-3 -5 -1 -10 4 -10 6 0 11 5 11 10 0 6 -2 10 -4 10 -3 0
-8 -4 -11 -10z"/>
<path d="M2045 540 c-3 -5 -1 -10 4 -10 6 0 11 5 11 10 0 6 -2 10 -4 10 -3 0
-8 -4 -11 -10z"/>
<path d="M1330 2419 c0 -5 5 -7 10 -4 6 3 10 8 10 11 0 2 -4 4 -10 4 -5 0 -10
-5 -10 -11z"/>
<path d="M1062 2210 c0 -14 2 -19 5 -12 2 6 2 18 0 25 -3 6 -5 1 -5 -13z"/>
<path d="M2746 2203 c-6 -14 -5 -15 5 -6 7 7 10 15 7 18 -3 3 -9 -2 -12 -12z"/>
</g>
</svg>
